HIERARCHY
ROOT mug2
{
	OFFSET 0.000000 0.000000 0.000000
	CHANNELS 6 Xposition Yposition Zposition Yrotation Xrotation Zrotation
	End Site
	{
		OFFSET 0.000000 0.000000 0.000000
	}
}
MOTION
Frames: 87
Frame Time: 0.008333334
1.167619 3.418551 3.553287 36.604720 1.762493 -1.403778 
1.167640 3.418521 3.553721 36.602780 1.775094 -1.411530 
1.167783 3.418381 3.554297 36.623900 1.781412 -1.374542 
1.167727 3.418692 3.554344 36.607300 1.810299 -1.408447 
1.168057 3.418780 3.554775 36.631720 1.797561 -1.369659 
1.168307 3.418741 3.555297 36.658160 1.818483 -1.358215 
1.168447 3.418673 3.555663 36.649910 1.848814 -1.356415 
1.168475 3.418782 3.555720 36.643940 1.873966 -1.354156 
1.168445 3.418802 3.556074 36.661380 1.831068 -1.323578 
1.168401 3.418853 3.555923 36.664290 1.850836 -1.346527 
1.168101 3.418839 3.555937 36.645220 1.827111 -1.368958 
1.167721 3.418703 3.555727 36.650670 1.814161 -1.347443 
1.167028 3.418586 3.555625 36.625030 1.798431 -1.345306 
1.166332 3.418308 3.555762 36.668910 1.755988 -1.312225 
1.165658 3.418205 3.555822 36.651460 1.760312 -1.324188 
1.164876 3.417823 3.556108 36.666740 1.806499 -1.276550 
1.163938 3.417966 3.556222 36.650640 1.754478 -1.277374 
1.162843 3.417804 3.556782 36.635170 1.832847 -1.242706 
1.161944 3.417758 3.557001 36.626190 1.800263 -1.231171 
1.161341 3.417636 3.557297 36.629800 1.776631 -1.221832 
1.160867 3.417689 3.557275 36.621170 1.759944 -1.233368 
1.160517 3.417886 3.556674 36.620430 1.763381 -1.252441 
1.160321 3.417774 3.556272 36.586140 1.748863 -1.292236 
1.160329 3.417803 3.555380 36.600450 1.737722 -1.279785 
1.160338 3.417833 3.554488 36.614730 1.726578 -1.267365 
1.159996 3.417714 3.554006 36.587200 1.713521 -1.327881 
1.160209 3.417887 3.552626 36.662340 1.668751 -1.223877 
1.159968 3.417699 3.552047 36.641840 1.624588 -1.224854 
1.159582 3.417578 3.551552 36.639560 1.609800 -1.213623 
1.159107 3.417297 3.551180 36.638140 1.638849 -1.194061 
1.158852 3.417300 3.551052 36.647030 1.648893 -1.189026 
1.158980 3.417253 3.551243 36.665460 1.639333 -1.172058 
1.158769 3.417256 3.551390 36.650230 1.635329 -1.180511 
1.158967 3.417563 3.551582 36.652450 1.619847 -1.206940 
1.159177 3.417714 3.551924 36.652070 1.620913 -1.207916 
1.159210 3.417433 3.552736 36.655930 1.626742 -1.225555 
1.159210 3.417675 3.552768 36.659190 1.632877 -1.221619 
1.159163 3.417685 3.553057 36.663890 1.630098 -1.202881 
1.158626 3.417513 3.553527 36.634160 1.657526 -1.293823 
1.158642 3.417579 3.553760 36.636590 1.644326 -1.261230 
1.158294 3.417093 3.554115 36.626570 1.661726 -1.294586 
1.158619 3.417892 3.552984 36.714540 1.626294 -1.132050 
1.158633 3.417287 3.553584 36.661410 1.651439 -1.266052 
1.158550 3.417438 3.553076 36.646060 1.643337 -1.258331 
1.158536 3.417442 3.553211 36.589490 1.679078 -1.300293 
1.158611 3.417375 3.552760 36.627080 1.631745 -1.274597 
1.158554 3.417366 3.552675 36.614730 1.651665 -1.275787 
1.158694 3.417456 3.552195 36.658180 1.651696 -1.175201 
1.158454 3.417349 3.552482 36.635080 1.668396 -1.240967 
1.158662 3.417506 3.552529 36.641080 1.635832 -1.192749 
1.158435 3.417517 3.552732 36.627020 1.642146 -1.245331 
1.158417 3.417523 3.553025 36.631380 1.648234 -1.265656 
1.158563 3.417311 3.553271 36.656320 1.644473 -1.249634 
1.158354 3.417266 3.553263 36.644370 1.638533 -1.268463 
1.158615 3.417243 3.553530 36.641170 1.617433 -1.271545 
1.158444 3.417340 3.553020 36.643180 1.649368 -1.263824 
1.158425 3.417552 3.552962 36.645840 1.668257 -1.252045 
1.158595 3.417369 3.552931 36.662240 1.678833 -1.244415 
1.158514 3.417380 3.552829 36.633850 1.675811 -1.255035 
1.158396 3.417402 3.552443 36.626990 1.674894 -1.255402 
1.158469 3.417645 3.552594 36.602660 1.610191 -1.287109 
1.158648 3.417369 3.552397 36.624880 1.624009 -1.279968 
1.158280 3.417249 3.551989 36.636230 1.640466 -1.270660 
1.158082 3.417101 3.551930 36.601150 1.682939 -1.242340 
1.158050 3.417270 3.551902 36.615350 1.637370 -1.257843 
1.158085 3.417122 3.551860 36.613200 1.676453 -1.231598 
1.158069 3.417063 3.551692 36.619230 1.671850 -1.240570 
1.158315 3.417144 3.551901 36.601770 1.684258 -1.259186 
1.158890 3.417359 3.551991 36.642100 1.641791 -1.254517 
1.159070 3.417262 3.552461 36.597620 1.691955 -1.235687 
1.159180 3.417575 3.552123 36.618330 1.617707 -1.274933 
1.159079 3.417500 3.552149 36.634000 1.660793 -1.264862 
1.158964 3.417532 3.552233 36.628120 1.644563 -1.271484 
1.158838 3.417528 3.552453 36.632310 1.648991 -1.243713 
1.158626 3.417567 3.552066 36.635650 1.640377 -1.266632 
1.158613 3.417454 3.551973 36.636470 1.648506 -1.241089 
1.158780 3.417486 3.551739 36.631030 1.656821 -1.246185 
1.158829 3.417381 3.551723 36.623610 1.669476 -1.231323 
1.158927 3.417591 3.551471 36.639080 1.657979 -1.265045 
1.159297 3.417375 3.551067 36.632720 1.655833 -1.191498 
1.159400 3.417217 3.550845 36.650210 1.648887 -1.193329 
1.159112 3.417202 3.550685 36.646140 1.680910 -1.166504 
1.159082 3.417287 3.550615 36.641740 1.686254 -1.184235 
1.159461 3.416973 3.550771 36.664970 1.652569 -1.120270 
1.159256 3.417276 3.550509 36.669190 1.646419 -1.159332 
1.159198 3.417169 3.550279 36.687000 1.669757 -1.157776 
1.159326 3.417450 3.550603 36.666940 1.617456 -1.198181 
